<?xml version="1.0" encoding="UTF-8"?>
<svg width="300px" height="100px" viewBox="0 0 300 100" xmlns="http://www.w3.org/2000/svg" xmlns:xlink="http://www.w3.org/1999/xlink" version="1.1">
 <!-- Generated by Pixelmator Pro 2.3.3 -->
 <g id="New-Group">
  <path id="形状" d="M90.642 21.53 L59.633 12.394 C57.223 11.675 54.626 11.947 52.417 13.149 50.207 14.351 48.569 16.385 47.863 18.799 L33.773 66.725 C32.306 71.736 35.17 76.99 40.177 78.471 L71.307 87.607 C73.714 88.325 76.308 88.052 78.513 86.85 80.718 85.647 82.352 83.614 83.053 81.202 L97.167 33.276 C97.867 30.853 97.572 28.25 96.347 26.046 95.122 23.841 93.069 22.216 90.642 21.53 Z M73.482 77.843 L43.537 69.021 57.337 22.158 87.33 30.98 Z" fill="#2f70f1" fill-opacity="1" stroke="none"/>
  <path id="形状-1" d="M27.465 68.248 L21.205 69.335 14.655 34.726 38.433 30.427 40.516 23.366 C39.001 22.551 37.252 22.278 35.561 22.593 L12.697 26.823 C10.696 27.198 8.926 28.354 7.779 30.037 6.631 31.719 6.201 33.789 6.583 35.789 L13.302 71.39 C14.095 75.551 18.105 78.285 22.268 77.504 L28.866 76.248 C27.614 73.78 27.126 70.994 27.465 68.248 Z" fill="#2f70f1" fill-opacity="0.705" stroke="none"/>
  <path id="poker" d="M61.758 60.011 C61.201 57.171 60.685 55.526 60.252 54.524 59.818 53.521 59.131 52.147 58.724 51.47 58.317 50.793 57.428 49.574 56.749 48.76 L55.513 47.282 57.274 46.785 C58.242 46.512 59.853 45.883 60.854 45.387 61.855 44.891 63.317 44 64.104 43.408 64.89 42.815 66.028 41.824 66.632 41.206 L67.731 40.082 68.109 41.95 C68.317 42.978 68.839 44.632 69.269 45.626 69.698 46.62 70.383 47.987 70.789 48.664 71.196 49.341 72.085 50.56 72.764 51.373 L74 52.852 72.294 53.333 C71.356 53.597 69.942 54.12 69.152 54.493 68.361 54.867 67.107 55.565 66.365 56.045 65.622 56.524 64.282 57.613 63.386 58.464 L61.758 60.011 Z" fill="#2f70f1" fill-opacity="1" stroke="none"/>
 </g>
 <path id="打牌记" d="M241.813 35.813 L241.813 40.75 246.625 40.75 C247.5 40.75 247.938 41.167 247.938 42 L247.938 73.25 C247.938 74.125 248.229 74.875 248.813 75.5 249.438 76.125 250.188 76.438 251.063 76.438 L259.625 76.438 260.875 71.5 257.188 71.5 C256.313 71.5 255.875 71.083 255.875 70.25 L255.875 39 C255.875 38.125 255.563 37.375 254.938 36.75 254.354 36.125 253.625 35.813 252.75 35.813 Z M256.75 32.938 L252 20.438 244.188 20.438 248.938 32.938 Z M263.5 21.813 L263.5 26.875 286.375 26.875 C287.25 26.875 287.688 27.312 287.688 28.188 L287.688 42.188 C287.688 43.063 287.25 43.5 286.375 43.5 L266.688 43.5 C265.813 43.5 265.063 43.792 264.438 44.375 263.813 45 263.5 45.75 263.5 46.625 L263.5 73.25 C263.5 74.125 263.813 74.875 264.438 75.5 265.063 76.125 265.813 76.438 266.688 76.438 L296.563 76.438 297.813 71.375 272.438 71.375 C271.563 71.375 271.125 70.938 271.125 70.063 L271.125 49.813 C271.125 48.979 271.563 48.563 272.438 48.563 L292.125 48.563 C293 48.563 293.75 48.25 294.375 47.625 295 47 295.313 46.25 295.313 45.375 L295.313 25 C295.313 24.125 295 23.375 294.375 22.75 293.75 22.125 293 21.813 292.125 21.813 Z M224.938 35.313 L221.125 35.313 221.125 29.375 223.625 29.375 C224.5 29.375 224.938 29.792 224.938 30.625 Z M221.125 45.875 L221.125 39.938 224.938 39.938 224.938 44.625 C224.938 45.458 224.5 45.875 223.625 45.875 Z M213.5 29.375 L213.5 35.313 209.75 35.313 209.75 30.625 C209.75 29.792 210.167 29.375 211 29.375 Z M209.75 39.938 L213.5 39.938 213.5 45.875 211 45.875 C210.167 45.875 209.75 45.458 209.75 44.625 Z M221.688 76.438 L221.688 67.625 233.813 67.625 233.813 62.5 221.688 62.5 221.688 54.813 214.625 54.813 217.625 51 229.375 51 C230.25 51 231 50.688 231.625 50.063 232.25 49.437 232.563 48.688 232.563 47.813 L232.563 27.438 C232.563 26.562 232.25 25.813 231.625 25.188 231 24.562 230.25 24.25 229.375 24.25 L218.688 24.25 220.25 20.438 212.625 20.438 211.063 24.25 205.25 24.25 C204.375 24.25 203.625 24.562 203 25.188 202.375 25.813 202.063 26.562 202.063 27.438 L202.063 47.813 C202.063 48.688 202.375 49.437 203 50.063 203.625 50.688 204.375 51 205.25 51 L208.688 51 200.625 61.188 209.5 61.188 214.063 55.5 214.063 62.5 200.813 62.5 200.813 67.625 214.063 67.625 214.063 76.438 Z M198.75 76.438 L198.75 50.625 C198.75 49.75 198.438 49 197.813 48.375 197.188 47.792 196.438 47.5 195.563 47.5 L186.688 47.5 186.688 42.688 199.813 42.75 199.813 37.625 196.875 37.625 196.875 20.438 189.25 20.438 189.25 37.625 186.688 37.625 186.688 20.438 179.188 20.438 179.188 55.938 C179.188 62.729 178.729 69.562 177.813 76.438 L185.313 76.438 C186.229 69.562 186.688 62.729 186.688 55.938 L186.688 52.563 189.813 52.563 C190.646 52.563 191.063 52.979 191.063 53.813 L191.063 76.438 Z M113.813 50.938 L121.438 49.625 121.438 35.688 113.813 35.688 113.813 30.625 121.438 30.625 121.438 20.438 129.063 20.438 129.063 30.625 135.438 30.625 135.438 35.688 129.063 35.688 129.063 48.25 135.438 47.125 135.438 52.25 129.063 53.375 129.063 73.25 C129.063 74.125 128.771 74.875 128.188 75.5 127.563 76.125 126.813 76.438 125.938 76.438 L115.063 76.438 113.813 71.313 120.188 71.313 C121.021 71.313 121.438 70.896 121.438 70.063 L121.438 54.688 113.813 56.063 Z M157.125 26.875 L157.125 73.25 C157.125 74.125 156.813 74.875 156.188 75.5 155.563 76.125 154.813 76.438 153.938 76.438 L143.125 76.438 141.875 71.375 148.25 71.375 C149.083 71.375 149.5 70.938 149.5 70.063 L149.5 26.875 135.438 26.875 135.438 21.813 169.875 21.813 169.875 26.875 Z" fill="#000000" fill-opacity="1" stroke="none"/>
</svg>
